<svg xmlns="http://www.w3.org/2000/svg" width="180" height="208" viewBox="0 0 180 208"><defs><linearGradient id="metal" x2="1" y2="1"><stop stop-color="#EFE5D2"/><stop offset=".32" stop-color="#C28D39"/><stop offset=".62" stop-color="#efd1a0"/><stop offset="1" stop-color="#916025"/></linearGradient><radialGradient id="glow"><stop stop-color="#710912"/><stop offset="1" stop-color="#251713"/></radialGradient></defs><path d="M90 5 168 38v73c0 44-36 72-78 92-42-20-78-48-78-92V38Z" fill="url(#glow)" stroke="url(#metal)" stroke-width="2"/><path d="M90 14 159 43v68c0 37-31 63-69 82-38-19-69-45-69-82V43Z" fill="none" stroke="#C28D39" stroke-opacity=".4"/><g transform="translate(30 31)" stroke="url(#metal)" fill="none" stroke-width="2.5" stroke-linecap="round" stroke-linejoin="round"><path d="M60 95V56m0 16L42 59m18 6 18-14M37 67C12 56 28 37 42 40c-5-25 29-30 35-9 26-9 35 27 16 34-8 13-21 12-33 5-7 5-16 4-23-3Z"/></g><path d="M51 146h78" stroke="#C28D39" stroke-opacity=".45"/><text x="90" y="173" fill="#EFE5D2" font-family="Georgia,serif" font-size="22" letter-spacing="5" text-anchor="middle">SS</text><path d="m90 18 2 5 5 1-4 3 1 5-4-3-4 3 1-5-4-3 5-1Z" fill="#C28D39"/></svg>